# xmcd
#
# Track frame offsets: 
#        150
#        13490
#        25350
#        44635
#        56735
#        67693
#        86073
#        100720
#        117753
#        134298
#
# Disc length: 1975 seconds
#
# Revision: 0
# Processed by: cddbd v1.5.2PL0 Copyright (c) Steve Scherf et al.
# Submitted via: ExactAudioCopy v0.99pb4
#
DISCID=8607b50a
DTITLE=Jack Greene - Highway To The Sky
DYEAR=1995
DGENRE=Country
TTITLE0=Highway To The Sky
TTITLE1=Good Time Chariot
TTITLE2=Follow Me
TTITLE3=Do It For The Love
TTITLE4=Joy Explosion
TTITLE5=This One Belongs To Me
TTITLE6=Over There
TTITLE7=Where I Wrote Your Name
TTITLE8=Mr. D.J.
TTITLE9=The Deal's Still On
EXTD=
EXTT0=
EXTT1=
EXTT2=
EXTT3=
EXTT4=
EXTT5=
EXTT6=
EXTT7=
EXTT8=
EXTT9=
PLAYORDER=
